<svg id="logo-black_svg__Layer_1" width="300" height="300" xmlns="http://www.w3.org/2000/svg">
  <defs id="logo-black_svg__defs1438">
    <style id="style1427">
      .logo-black_svg__cls-2{fill:#292f33}
    </style>
  </defs>
  <path id="logo-black_svg__path1440" fill="none" stroke="#0ff" width="90" height="90" stroke-miterlimit="10" stroke-opacity="1" stroke-width="1.156" d="M27.825 5.867s-7.241-11.622-11.89 5.629c-.134.697-.24 1.402-.346 2.106a80.953 80.953 0 0 0-.592 5.36 68.191 68.191 0 0 0-.183 7.2c.078 2.55.324 5.114.88 7.608.515 2.31 1.297 4.607 2.6 6.593.726 1.099 1.627 2.36 2.994 2.635 1.388.281 2.747-.022 3.93-.768 1.184-.747 2.05-1.81 2.74-2.973 1.114-1.88 1.769-4.022 2.227-6.142.725-3.368.972-6.826 1.035-10.264"/>
  <path id="logo-black_svg__path1442" fill="none" stroke="#0ff" stroke-miterlimit="10" stroke-opacity="1" stroke-width="4.156" d="M5.474 17.667a9.531 9.531 0 0 0-1.839 1.648c-.965 1.106-1.726 2.536-1.521 4.05.324 2.452 2.803 4.05 4.804 5.086 2.155 1.12 4.628 1.402 7.009 1.74 2.536.36 5.093.606 7.657.719 2.91.127 5.832.077 8.72-.29 2.699-.344 5.425-.978 7.848-2.24.042-.02.091-.048.134-.07 0 0 20.111-10.904-15.462-13.496"/>
  <ellipse id="logo-black_svg__ellipse1444" cx="39.983" cy="6.1" fill="none" stroke="#0ff" stroke-miterlimit="10" stroke-opacity="1" stroke-width="2.994" rx="4.234" ry="4.072" display="inline"/>
</svg>
