<svg xmlns="http://www.w3.org/2000/svg" xmlns:xlink="http://www.w3.org/1999/xlink" width="500" zoomAndPan="magnify" viewBox="0 0 375 374.999991" height="500" preserveAspectRatio="xMidYMid meet" version="1.0"><defs><filter x="0%" y="0%" width="100%" height="100%" id="f528802b32"><feColorMatrix values="0 0 0 0 1 0 0 0 0 1 0 0 0 0 1 0 0 0 1 0" color-interpolation-filters="sRGB"/></filter><clipPath id="758a406145"><path d="M 86 10.457031 L 317 10.457031 L 317 283 L 86 283 Z M 86 10.457031 " clip-rule="nonzero"/></clipPath><clipPath id="155449358f"><path d="M 4.273438 234 L 125 234 L 125 354.707031 L 4.273438 354.707031 Z M 4.273438 234 " clip-rule="nonzero"/></clipPath><clipPath id="c091654c22"><path d="M 269 344 L 345 344 L 345 354.707031 L 269 354.707031 Z M 269 344 " clip-rule="nonzero"/></clipPath><mask id="ca6852d407"><g filter="url(#f528802b32)"><rect x="-37.5" width="450" fill="#000000" y="-37.499999" height="449.999989" fill-opacity="0.74"/></g></mask><clipPath id="6fe7ba6755"><path d="M 128 77 L 231.039062 77 L 231.039062 123.480469 L 128 123.480469 Z M 128 77 " clip-rule="nonzero"/></clipPath><mask id="8ca70e898c"><g filter="url(#f528802b32)"><rect x="-168.5" width="540" fill="#000000" y="-241.499998" height="539.999987" fill-opacity="0.35"/></g></mask><clipPath id="34d0aa41ac"><path d="M 0.078125 1 L 103 1 L 103 46.480469 L 0.078125 46.480469 Z M 0.078125 1 " clip-rule="nonzero"/></clipPath><clipPath id="6c837e0655"><rect x="0" width="104" y="0" height="47"/></clipPath><clipPath id="7bb174f275"><path d="M 0.640625 0.359375 L 78 0.359375 L 78 82 L 0.640625 82 Z M 0.640625 0.359375 " clip-rule="nonzero"/></clipPath><mask id="4fbb14ab54"><g filter="url(#f528802b32)"><rect x="-168.5" width="540" fill="#000000" y="-241.499998" height="539.999987" fill-opacity="0.35"/></g></mask><clipPath id="0081e4b600"><path d="M 0.640625 0.359375 L 77 0.359375 L 77 81.960938 L 0.640625 81.960938 Z M 0.640625 0.359375 " clip-rule="nonzero"/></clipPath><clipPath id="4638a24876"><rect x="0" width="78" y="0" height="82"/></clipPath><clipPath id="3c23564dbb"><rect x="0" width="232" y="0" height="124"/></clipPath><clipPath id="6d6d0b9a19"><path d="M 42 78 L 371.023438 78 L 371.023438 333 L 42 333 Z M 42 78 " clip-rule="nonzero"/></clipPath><mask id="420e7f6dab"><g filter="url(#f528802b32)"><rect x="-37.5" width="450" fill="#000000" y="-37.499999" height="449.999989" fill-opacity="0.26"/></g></mask><clipPath id="5274b9d491"><path d="M 1 0.238281 L 329 0.238281 L 329 254.878906 L 1 254.878906 Z M 1 0.238281 " clip-rule="nonzero"/></clipPath><clipPath id="7551d89bda"><rect x="0" width="330" y="0" height="255"/></clipPath><mask id="253c97d204"><g filter="url(#f528802b32)"><rect x="-37.5" width="450" fill="#000000" y="-37.499999" height="449.999989" fill-opacity="0.35"/></g></mask><clipPath id="3ca3c67949"><path d="M 0.121094 0.078125 L 6 0.078125 L 6 15.679688 L 0.121094 15.679688 Z M 0.121094 0.078125 " clip-rule="nonzero"/></clipPath><clipPath id="e665e68262"><rect x="0" width="7" y="0" height="16"/></clipPath><mask id="33e0a8982b"><g filter="url(#f528802b32)"><rect x="-37.5" width="450" fill="#000000" y="-37.499999" height="449.999989" fill-opacity="0.35"/></g></mask><clipPath id="bcbb7d3dec"><path d="M 1 1 L 10.359375 1 L 10.359375 30.960938 L 1 30.960938 Z M 1 1 " clip-rule="nonzero"/></clipPath><clipPath id="3564e78178"><rect x="0" width="11" y="0" height="31"/></clipPath></defs><g clip-path="url(#758a406145)"><path fill="#ffffff" d="M 147.4375 240.59375 L 181.914062 173.777344 L 234.359375 275.410156 C 254.089844 279.914062 274.074219 282.183594 294.308594 282.214844 C 298.875 282.214844 310.152344 282.261719 316.453125 271.480469 L 181.914062 10.566406 L 86.949219 194.585938 C 105.3125 212.289062 125.472656 227.625 147.4375 240.59375 Z M 147.4375 240.59375 " fill-opacity="1" fill-rule="nonzero"/></g><g clip-path="url(#155449358f)"><path fill="#ffffff" d="M 66.472656 234.285156 L 4.273438 354.800781 L 88.496094 354.800781 L 124.890625 284.261719 C 103.441406 269.914062 83.964844 253.257812 66.472656 234.285156 Z M 66.472656 234.285156 " fill-opacity="1" fill-rule="nonzero"/></g><g clip-path="url(#c091654c22)"><path fill="#ffffff" d="M 269.8125 344.117188 L 275.328125 354.800781 L 344.765625 354.800781 C 319.515625 353.085938 294.53125 349.523438 269.8125 344.117188 Z M 269.8125 344.117188 " fill-opacity="1" fill-rule="nonzero"/></g><g mask="url(#ca6852d407)"><g transform="matrix(1, 0, 0, 1, 86, 159)"><g clip-path="url(#3c23564dbb)"><g clip-path="url(#6fe7ba6755)"><g mask="url(#8ca70e898c)"><g transform="matrix(1, 0, 0, 1, 128, 77)"><g clip-path="url(#6c837e0655)"><g clip-path="url(#34d0aa41ac)"><path fill="#1a2e46" d="M 80.308594 46.214844 C 84.875 46.214844 96.152344 46.261719 102.453125 35.480469 L 96.320312 23.589844 C 59.664062 19.730469 27.964844 11.820312 0.558594 1.078125 L 20.347656 39.425781 C 28.179688 41.195312 39.453125 42.976562 51.4375 44.640625 C 61.03125 45.691406 70.65625 46.214844 80.308594 46.214844 Z M 80.308594 46.214844 " fill-opacity="1" fill-rule="nonzero"/></g></g></g></g></g><g clip-path="url(#7bb174f275)"><g mask="url(#4fbb14ab54)"><g><g clip-path="url(#4638a24876)"><g clip-path="url(#0081e4b600)"><path fill="#1a2e46" d="M 76.878906 51.664062 C 66.023438 44.625 55.75 36.824219 46.054688 28.261719 C 36.359375 19.699219 27.347656 10.46875 19.023438 0.566406 L 0.949219 35.585938 C 19.3125 53.289062 39.472656 68.625 61.4375 81.59375 Z M 76.878906 51.664062 " fill-opacity="1" fill-rule="nonzero"/></g></g></g></g></g></g></g></g><path fill="#ffffff" d="M 370.71875 332.414062 C 370.71875 332.414062 83.019531 339.871094 43.480469 78.949219 C 42.71875 73.890625 42.046875 68.726562 41.46875 63.457031 C 42.523438 69.878906 79.488281 282.785156 336.867188 265.890625 L 361.296875 313.867188 Z M 370.71875 332.414062 " fill-opacity="1" fill-rule="nonzero"/><g clip-path="url(#6d6d0b9a19)"><g mask="url(#420e7f6dab)"><g transform="matrix(1, 0, 0, 1, 42, 78)"><g clip-path="url(#7551d89bda)"><g clip-path="url(#5274b9d491)"><path fill="#1a2e46" d="M 328.71875 254.414062 C 328.71875 254.414062 41.019531 261.871094 1.480469 0.949219 C 10.628906 51.761719 59.859375 210.5625 319.296875 235.894531 Z M 328.71875 254.414062 " fill-opacity="1" fill-rule="nonzero"/></g></g></g></g></g><path fill="#ffffff" d="M 45.917969 52.511719 L 48.402344 55.195312 L 50.675781 67.414062 L 45.582031 59.160156 C 45.875 56.953125 45.988281 54.738281 45.917969 52.511719 Z M 33.800781 54.503906 L 32.257812 57.804688 L 33.992188 70.113281 L 36.1875 60.671875 C 35.226562 58.679688 34.429688 56.625 33.800781 54.503906 Z M 44.535156 60.542969 L 40.9375 60.039062 L 37.691406 61.664062 C 37.691406 61.664062 28.203125 45.746094 36.207031 31.308594 C 48.402344 42.445312 44.535156 60.523438 44.535156 60.523438 Z M 42.140625 44.058594 C 42.058594 43.5625 41.886719 43.097656 41.621094 42.671875 C 41.355469 42.246094 41.019531 41.882812 40.613281 41.589844 C 40.203125 41.296875 39.753906 41.09375 39.265625 40.980469 C 38.777344 40.863281 38.285156 40.847656 37.789062 40.929688 C 37.292969 41.007812 36.828125 41.183594 36.402344 41.445312 C 35.976562 41.710938 35.613281 42.046875 35.320312 42.457031 C 35.027344 42.863281 34.824219 43.3125 34.707031 43.800781 C 34.59375 44.289062 34.574219 44.78125 34.65625 45.277344 C 34.738281 45.773438 34.910156 46.238281 35.175781 46.664062 C 35.4375 47.089844 35.773438 47.453125 36.183594 47.746094 C 36.589844 48.039062 37.039062 48.246094 37.527344 48.359375 C 38.019531 48.476562 38.511719 48.492188 39.007812 48.410156 C 39.503906 48.332031 39.964844 48.15625 40.390625 47.890625 C 40.820312 47.628906 41.179688 47.289062 41.472656 46.882812 C 41.769531 46.472656 41.972656 46.023438 42.085938 45.535156 C 42.203125 45.046875 42.21875 44.554688 42.140625 44.058594 Z M 42.140625 44.058594 " fill-opacity="1" fill-rule="nonzero"/><path fill="#ffffff" d="M 115.363281 123.457031 C 115.363281 124.105469 115.332031 124.746094 115.265625 125.390625 C 115.203125 126.03125 115.109375 126.667969 114.984375 127.300781 C 114.859375 127.933594 114.703125 128.558594 114.515625 129.175781 C 114.328125 129.792969 114.109375 130.398438 113.863281 130.996094 C 113.617188 131.589844 113.339844 132.175781 113.035156 132.742188 C 112.734375 133.3125 112.402344 133.863281 112.042969 134.402344 C 111.683594 134.9375 111.300781 135.453125 110.890625 135.953125 C 110.484375 136.453125 110.050781 136.929688 109.59375 137.386719 C 109.136719 137.839844 108.660156 138.273438 108.160156 138.683594 C 107.664062 139.09375 107.144531 139.476562 106.609375 139.835938 C 106.074219 140.191406 105.519531 140.523438 104.953125 140.828125 C 104.382812 141.132812 103.800781 141.40625 103.203125 141.652344 C 102.609375 141.902344 102 142.117188 101.382812 142.304688 C 100.765625 142.492188 100.140625 142.648438 99.511719 142.773438 C 98.878906 142.902344 98.238281 142.996094 97.597656 143.058594 C 96.957031 143.121094 96.3125 143.152344 95.667969 143.152344 C 95.023438 143.152344 94.378906 143.121094 93.738281 143.058594 C 93.09375 142.996094 92.457031 142.902344 91.824219 142.773438 C 91.191406 142.648438 90.566406 142.492188 89.949219 142.304688 C 89.332031 142.117188 88.726562 141.902344 88.132812 141.652344 C 87.535156 141.40625 86.953125 141.132812 86.382812 140.828125 C 85.816406 140.523438 85.261719 140.191406 84.726562 139.835938 C 84.191406 139.476562 83.671875 139.09375 83.171875 138.683594 C 82.675781 138.273438 82.199219 137.839844 81.742188 137.386719 C 81.285156 136.929688 80.851562 136.453125 80.445312 135.953125 C 80.035156 135.453125 79.652344 134.9375 79.292969 134.402344 C 78.933594 133.863281 78.601562 133.3125 78.296875 132.742188 C 77.996094 132.175781 77.71875 131.589844 77.472656 130.996094 C 77.226562 130.398438 77.007812 129.792969 76.820312 129.175781 C 76.632812 128.558594 76.476562 127.933594 76.351562 127.300781 C 76.226562 126.667969 76.132812 126.03125 76.066406 125.390625 C 76.003906 124.746094 75.972656 124.105469 75.972656 123.457031 C 75.972656 122.8125 76.003906 122.171875 76.066406 121.527344 C 76.132812 120.886719 76.226562 120.25 76.351562 119.617188 C 76.476562 118.984375 76.632812 118.359375 76.820312 117.742188 C 77.007812 117.125 77.226562 116.519531 77.472656 115.921875 C 77.71875 115.328125 77.996094 114.742188 78.296875 114.175781 C 78.601562 113.605469 78.933594 113.054688 79.292969 112.515625 C 79.652344 111.980469 80.035156 111.464844 80.445312 110.964844 C 80.851562 110.464844 81.285156 109.988281 81.742188 109.53125 C 82.199219 109.078125 82.675781 108.644531 83.171875 108.234375 C 83.671875 107.824219 84.191406 107.441406 84.726562 107.082031 C 85.261719 106.726562 85.816406 106.394531 86.382812 106.089844 C 86.953125 105.785156 87.535156 105.511719 88.132812 105.261719 C 88.726562 105.015625 89.332031 104.800781 89.949219 104.613281 C 90.566406 104.425781 91.191406 104.269531 91.824219 104.144531 C 92.457031 104.015625 93.09375 103.921875 93.738281 103.859375 C 94.378906 103.796875 95.023438 103.765625 95.667969 103.765625 C 96.3125 103.765625 96.957031 103.796875 97.597656 103.859375 C 98.238281 103.921875 98.878906 104.015625 99.511719 104.144531 C 100.140625 104.269531 100.765625 104.425781 101.382812 104.613281 C 102 104.800781 102.609375 105.015625 103.203125 105.261719 C 103.800781 105.511719 104.382812 105.785156 104.953125 106.089844 C 105.519531 106.394531 106.074219 106.726562 106.609375 107.082031 C 107.144531 107.441406 107.664062 107.824219 108.160156 108.234375 C 108.660156 108.644531 109.136719 109.078125 109.59375 109.53125 C 110.050781 109.988281 110.484375 110.464844 110.890625 110.964844 C 111.300781 111.464844 111.683594 111.980469 112.042969 112.515625 C 112.402344 113.054688 112.734375 113.605469 113.035156 114.175781 C 113.339844 114.742188 113.617188 115.328125 113.863281 115.921875 C 114.109375 116.519531 114.328125 117.125 114.515625 117.742188 C 114.703125 118.359375 114.859375 118.984375 114.984375 119.617188 C 115.109375 120.25 115.203125 120.886719 115.265625 121.527344 C 115.332031 122.171875 115.363281 122.8125 115.363281 123.457031 Z M 115.363281 123.457031 " fill-opacity="1" fill-rule="nonzero"/><path fill="#ffffff" d="M 85.3125 78.949219 C 85.3125 79.257812 85.285156 79.558594 85.222656 79.859375 C 85.164062 80.160156 85.074219 80.453125 84.957031 80.738281 C 84.839844 81.019531 84.695312 81.289062 84.527344 81.542969 C 84.355469 81.800781 84.164062 82.035156 83.945312 82.253906 C 83.730469 82.46875 83.492188 82.664062 83.238281 82.832031 C 82.984375 83.003906 82.714844 83.148438 82.429688 83.265625 C 82.148438 83.382812 81.855469 83.472656 81.554688 83.53125 C 81.253906 83.589844 80.949219 83.621094 80.644531 83.621094 C 80.335938 83.621094 80.03125 83.589844 79.730469 83.53125 C 79.429688 83.472656 79.140625 83.382812 78.855469 83.265625 C 78.574219 83.148438 78.304688 83.003906 78.046875 82.832031 C 77.792969 82.664062 77.558594 82.46875 77.339844 82.253906 C 77.125 82.035156 76.929688 81.800781 76.761719 81.542969 C 76.589844 81.289062 76.445312 81.019531 76.328125 80.738281 C 76.210938 80.453125 76.121094 80.160156 76.0625 79.859375 C 76.003906 79.558594 75.972656 79.257812 75.972656 78.949219 C 75.972656 78.644531 76.003906 78.339844 76.0625 78.039062 C 76.121094 77.738281 76.210938 77.445312 76.328125 77.164062 C 76.445312 76.878906 76.589844 76.609375 76.761719 76.355469 C 76.929688 76.101562 77.125 75.863281 77.339844 75.648438 C 77.558594 75.429688 77.792969 75.238281 78.046875 75.066406 C 78.304688 74.894531 78.574219 74.753906 78.855469 74.636719 C 79.140625 74.519531 79.429688 74.429688 79.730469 74.371094 C 80.03125 74.308594 80.335938 74.28125 80.644531 74.28125 C 80.949219 74.28125 81.253906 74.308594 81.554688 74.371094 C 81.855469 74.429688 82.148438 74.519531 82.429688 74.636719 C 82.714844 74.753906 82.984375 74.894531 83.238281 75.066406 C 83.492188 75.238281 83.730469 75.429688 83.945312 75.648438 C 84.164062 75.863281 84.355469 76.101562 84.527344 76.355469 C 84.695312 76.609375 84.839844 76.878906 84.957031 77.164062 C 85.074219 77.445312 85.164062 77.738281 85.222656 78.039062 C 85.285156 78.339844 85.3125 78.644531 85.3125 78.949219 Z M 85.3125 78.949219 " fill-opacity="1" fill-rule="nonzero"/><path fill="#ffffff" d="M 75.972656 200.078125 C 75.972656 200.6875 75.914062 201.296875 75.792969 201.894531 C 75.675781 202.496094 75.496094 203.078125 75.261719 203.644531 C 75.027344 204.210938 74.742188 204.75 74.402344 205.257812 C 74.0625 205.765625 73.675781 206.238281 73.242188 206.671875 C 72.808594 207.105469 72.335938 207.492188 71.828125 207.832031 C 71.320312 208.171875 70.78125 208.460938 70.214844 208.695312 C 69.648438 208.929688 69.066406 209.105469 68.464844 209.222656 C 67.863281 209.34375 67.257812 209.402344 66.644531 209.402344 C 66.035156 209.402344 65.425781 209.34375 64.828125 209.222656 C 64.226562 209.105469 63.640625 208.929688 63.078125 208.695312 C 62.511719 208.460938 61.972656 208.171875 61.464844 207.832031 C 60.953125 207.492188 60.484375 207.105469 60.050781 206.671875 C 59.617188 206.238281 59.230469 205.765625 58.890625 205.257812 C 58.550781 204.75 58.261719 204.210938 58.027344 203.644531 C 57.792969 203.078125 57.617188 202.496094 57.496094 201.894531 C 57.378906 201.296875 57.320312 200.6875 57.320312 200.078125 C 57.320312 199.464844 57.378906 198.855469 57.496094 198.257812 C 57.617188 197.65625 57.792969 197.074219 58.027344 196.507812 C 58.261719 195.941406 58.550781 195.402344 58.890625 194.894531 C 59.230469 194.386719 59.617188 193.914062 60.050781 193.480469 C 60.484375 193.046875 60.953125 192.660156 61.464844 192.320312 C 61.972656 191.980469 62.511719 191.695312 63.078125 191.460938 C 63.640625 191.226562 64.226562 191.046875 64.828125 190.929688 C 65.425781 190.808594 66.035156 190.75 66.644531 190.75 C 67.257812 190.75 67.863281 190.808594 68.464844 190.929688 C 69.066406 191.046875 69.648438 191.226562 70.214844 191.460938 C 70.78125 191.695312 71.320312 191.980469 71.828125 192.320312 C 72.335938 192.660156 72.808594 193.046875 73.242188 193.480469 C 73.675781 193.914062 74.0625 194.386719 74.402344 194.894531 C 74.742188 195.402344 75.027344 195.941406 75.261719 196.507812 C 75.496094 197.074219 75.675781 197.65625 75.792969 198.257812 C 75.914062 198.855469 75.972656 199.464844 75.972656 200.078125 Z M 75.972656 200.078125 " fill-opacity="1" fill-rule="nonzero"/><g mask="url(#253c97d204)"><g transform="matrix(1, 0, 0, 1, 45, 52)"><g clip-path="url(#e665e68262)"><g clip-path="url(#3ca3c67949)"><path fill="#1a2e46" d="M 5.675781 15.386719 L 3.402344 3.167969 L 0.917969 0.484375 C 0.988281 2.703125 0.875 4.910156 0.582031 7.109375 Z M 5.675781 15.386719 " fill-opacity="1" fill-rule="nonzero"/></g></g></g></g><g mask="url(#33e0a8982b)"><g transform="matrix(1, 0, 0, 1, 35, 30)"><g clip-path="url(#3564e78178)"><g clip-path="url(#bcbb7d3dec)"><path fill="#1a2e46" d="M 1.207031 1.308594 L 2.785156 10.921875 C 3.28125 10.84375 3.773438 10.859375 4.265625 10.972656 C 4.753906 11.089844 5.203125 11.292969 5.613281 11.589844 C 6.019531 11.882812 6.355469 12.242188 6.621094 12.671875 C 6.886719 13.097656 7.058594 13.558594 7.140625 14.058594 C 7.222656 14.554688 7.203125 15.046875 7.089844 15.535156 C 6.972656 16.027344 6.769531 16.476562 6.476562 16.882812 C 6.179688 17.292969 5.820312 17.628906 5.394531 17.894531 C 4.964844 18.15625 4.503906 18.332031 4.007812 18.410156 L 5.90625 30.019531 L 9.503906 30.523438 C 9.503906 30.523438 13.402344 12.445312 1.207031 1.308594 Z M 1.207031 1.308594 " fill-opacity="1" fill-rule="nonzero"/></g></g></g></g></svg>