<svg xmlns="http://www.w3.org/2000/svg" xmlns:xlink="http://www.w3.org/1999/xlink" width="576" zoomAndPan="magnify" viewBox="0 0 432 287.999989" height="384" preserveAspectRatio="xMidYMid meet" version="1.0"><defs><clipPath id="fae52bc41c"><path d="M 71.503906 132 L 361 132 L 361 156 L 71.503906 156 Z M 71.503906 132 " clip-rule="nonzero"/></clipPath><clipPath id="ee9ceede43"><path d="M 71.503906 0 L 230 0 L 230 156 L 71.503906 156 Z M 71.503906 0 " clip-rule="nonzero"/></clipPath></defs><path fill="#ac2037" d="M 75.167969 112.054688 L 357.367188 112.054688 C 355.527344 103.90625 353.003906 96.023438 349.855469 88.460938 L 82.675781 88.460938 C 79.527344 96.023438 77.003906 103.90625 75.167969 112.054688 " fill-opacity="1" fill-rule="nonzero"/><g clip-path="url(#fae52bc41c)"><path fill="#ac2037" d="M 71.621094 143.992188 C 71.621094 147.964844 71.785156 151.898438 72.101562 155.789062 L 360.433594 155.789062 C 360.746094 151.898438 360.914062 147.964844 360.914062 143.992188 C 360.914062 140.019531 360.746094 136.085938 360.433594 132.195312 L 72.101562 132.195312 C 71.785156 136.085938 71.621094 140.019531 71.621094 143.992188 " fill-opacity="1" fill-rule="nonzero"/></g><path fill="#ac2037" d="M 82.675781 199.527344 L 349.855469 199.527344 C 353.003906 191.964844 355.527344 184.078125 357.367188 175.929688 L 75.167969 175.929688 C 77.003906 184.078125 79.527344 191.964844 82.675781 199.527344 " fill-opacity="1" fill-rule="nonzero"/><path fill="#ac2037" d="M 111.085938 243.261719 L 321.445312 243.261719 C 328.25 236.054688 334.320312 228.152344 339.546875 219.667969 L 92.984375 219.667969 C 98.207031 228.152344 104.28125 236.054688 111.085938 243.261719 " fill-opacity="1" fill-rule="nonzero"/><path fill="#ac2037" d="M 92.984375 68.320312 L 339.546875 68.320312 C 334.324219 59.835938 328.25 51.933594 321.445312 44.726562 L 111.085938 44.726562 C 104.277344 51.933594 98.207031 59.835938 92.984375 68.320312 " fill-opacity="1" fill-rule="nonzero"/><path fill="#ac2037" d="M 134.652344 263.398438 C 154.429688 276.9375 177.738281 285.6875 202.914062 287.992188 L 229.617188 287.992188 C 254.792969 285.6875 278.101562 276.9375 297.878906 263.398438 L 134.652344 263.398438 " fill-opacity="1" fill-rule="nonzero"/><path fill="#ac2037" d="M 297.878906 24.585938 C 278.101562 11.046875 254.789062 2.296875 229.613281 -0.00390625 L 202.917969 -0.00390625 C 177.742188 2.296875 154.429688 11.046875 134.652344 24.585938 L 297.878906 24.585938 " fill-opacity="1" fill-rule="nonzero"/><path fill="#ffffff" d="M 111.085938 44.726562 L 321.445312 44.726562 C 314.34375 37.207031 306.441406 30.449219 297.878906 24.585938 L 134.652344 24.585938 C 126.089844 30.449219 118.1875 37.207031 111.085938 44.726562 " fill-opacity="1" fill-rule="nonzero"/><path fill="#ffffff" d="M 82.675781 88.460938 L 349.855469 88.460938 C 346.933594 81.453125 343.484375 74.722656 339.542969 68.320312 L 92.984375 68.320312 C 89.046875 74.722656 85.59375 81.453125 82.675781 88.460938 " fill-opacity="1" fill-rule="nonzero"/><path fill="#ffffff" d="M 72.101562 132.195312 L 360.433594 132.195312 C 359.878906 125.335938 358.84375 118.613281 357.367188 112.054688 L 75.164062 112.054688 C 73.6875 118.613281 72.652344 125.335938 72.101562 132.195312 " fill-opacity="1" fill-rule="nonzero"/><path fill="#ffffff" d="M 75.164062 175.929688 L 357.367188 175.929688 C 358.84375 169.375 359.878906 162.648438 360.433594 155.789062 L 72.101562 155.789062 C 72.65625 162.648438 73.6875 169.375 75.164062 175.929688 " fill-opacity="1" fill-rule="nonzero"/><path fill="#ffffff" d="M 92.984375 219.667969 L 339.542969 219.667969 C 343.484375 213.265625 346.933594 206.535156 349.855469 199.527344 L 82.675781 199.527344 C 85.59375 206.535156 89.046875 213.265625 92.984375 219.667969 " fill-opacity="1" fill-rule="nonzero"/><path fill="#ffffff" d="M 134.652344 263.398438 L 297.878906 263.398438 C 306.441406 257.539062 314.339844 250.78125 321.445312 243.261719 L 111.085938 243.261719 C 118.1875 250.78125 126.089844 257.539062 134.652344 263.398438 " fill-opacity="1" fill-rule="nonzero"/><g clip-path="url(#ee9ceede43)"><path fill="#22325e" d="M 229.152344 -0.00390625 L 202.917969 -0.00390625 C 129.289062 6.730469 71.621094 68.625 71.621094 143.992188 C 71.621094 147.964844 71.785156 151.898438 72.101562 155.789062 L 229.152344 155.789062 L 229.152344 -0.00390625 " fill-opacity="1" fill-rule="nonzero"/></g><path fill="#ffffff" d="M 93.765625 132.730469 L 96.1875 137.632812 L 101.601562 138.421875 L 97.683594 142.238281 L 98.605469 147.628906 L 93.765625 145.082031 L 88.921875 147.628906 L 89.847656 142.238281 L 85.929688 138.421875 L 91.34375 137.632812 L 93.765625 132.730469 " fill-opacity="1" fill-rule="nonzero"/><path fill="#ffffff" d="M 93.765625 101.585938 L 96.1875 106.488281 L 101.601562 107.277344 L 97.683594 111.09375 L 98.605469 116.484375 L 93.765625 113.941406 L 88.921875 116.484375 L 89.847656 111.09375 L 85.929688 107.277344 L 91.34375 106.488281 L 93.765625 101.585938 " fill-opacity="1" fill-rule="nonzero"/><path fill="#ffffff" d="M 98.609375 70.441406 L 101.03125 75.347656 L 106.441406 76.136719 L 102.527344 79.953125 L 103.449219 85.34375 L 98.609375 82.796875 L 93.765625 85.34375 L 94.691406 79.953125 L 90.773438 76.136719 L 96.1875 75.347656 L 98.609375 70.441406 " fill-opacity="1" fill-rule="nonzero"/><path fill="#ffffff" d="M 113.769531 117.828125 L 116.191406 122.734375 L 121.605469 123.519531 L 117.6875 127.339844 L 118.613281 132.730469 L 113.769531 130.183594 L 108.929688 132.730469 L 109.855469 127.339844 L 105.9375 123.519531 L 111.351562 122.734375 L 113.769531 117.828125 " fill-opacity="1" fill-rule="nonzero"/><path fill="#ffffff" d="M 113.769531 86.6875 L 116.191406 91.589844 L 121.605469 92.375 L 117.6875 96.195312 L 118.613281 101.585938 L 113.769531 99.042969 L 108.929688 101.585938 L 109.855469 96.195312 L 105.9375 92.375 L 111.351562 91.589844 L 113.769531 86.6875 " fill-opacity="1" fill-rule="nonzero"/><path fill="#ffffff" d="M 113.769531 55.542969 L 116.191406 60.445312 L 121.605469 61.234375 L 117.6875 65.050781 L 118.613281 70.441406 L 113.769531 67.898438 L 108.929688 70.441406 L 109.855469 65.050781 L 105.9375 61.234375 L 111.351562 60.445312 L 113.769531 55.542969 " fill-opacity="1" fill-rule="nonzero"/><path fill="#ffffff" d="M 133.175781 132.730469 L 135.59375 137.632812 L 141.011719 138.421875 L 137.09375 142.238281 L 138.015625 147.628906 L 133.175781 145.082031 L 128.332031 147.628906 L 129.257812 142.238281 L 125.339844 138.421875 L 130.753906 137.632812 L 133.175781 132.730469 " fill-opacity="1" fill-rule="nonzero"/><path fill="#ffffff" d="M 133.175781 101.585938 L 135.59375 106.488281 L 141.011719 107.277344 L 137.09375 111.09375 L 138.015625 116.484375 L 133.175781 113.941406 L 128.332031 116.484375 L 129.257812 111.09375 L 125.339844 107.277344 L 130.753906 106.488281 L 133.175781 101.585938 " fill-opacity="1" fill-rule="nonzero"/><path fill="#ffffff" d="M 133.175781 70.441406 L 135.59375 75.347656 L 141.011719 76.136719 L 137.09375 79.953125 L 138.015625 85.34375 L 133.175781 82.796875 L 128.332031 85.34375 L 129.257812 79.953125 L 125.339844 76.136719 L 130.753906 75.347656 L 133.175781 70.441406 " fill-opacity="1" fill-rule="nonzero"/><path fill="#ffffff" d="M 133.175781 39.296875 L 135.597656 44.203125 L 141.011719 44.992188 L 137.09375 48.804688 L 138.015625 54.199219 L 133.175781 51.652344 L 128.332031 54.199219 L 129.257812 48.804688 L 125.339844 44.992188 L 130.753906 44.203125 L 133.175781 39.296875 " fill-opacity="1" fill-rule="nonzero"/><path fill="#ffffff" d="M 153.179688 117.828125 L 155.601562 122.734375 L 161.015625 123.519531 L 157.097656 127.339844 L 158.023438 132.730469 L 153.179688 130.183594 L 148.339844 132.730469 L 149.261719 127.339844 L 145.34375 123.519531 L 150.761719 122.734375 L 153.179688 117.828125 " fill-opacity="1" fill-rule="nonzero"/><path fill="#ffffff" d="M 153.179688 86.6875 L 155.601562 91.589844 L 161.015625 92.375 L 157.097656 96.195312 L 158.023438 101.585938 L 153.179688 99.042969 L 148.339844 101.585938 L 149.261719 96.195312 L 145.34375 92.375 L 150.761719 91.589844 L 153.179688 86.6875 " fill-opacity="1" fill-rule="nonzero"/><path fill="#ffffff" d="M 153.179688 55.542969 L 155.601562 60.445312 L 161.015625 61.234375 L 157.097656 65.050781 L 158.023438 70.441406 L 153.179688 67.898438 L 148.339844 70.441406 L 149.261719 65.050781 L 145.34375 61.234375 L 150.761719 60.445312 L 153.179688 55.542969 " fill-opacity="1" fill-rule="nonzero"/><path fill="#ffffff" d="M 153.179688 24.398438 L 155.601562 29.304688 L 161.015625 30.089844 L 157.097656 33.910156 L 158.023438 39.300781 L 153.179688 36.753906 L 148.339844 39.300781 L 149.261719 33.910156 L 145.34375 30.089844 L 150.757812 29.304688 L 153.179688 24.398438 " fill-opacity="1" fill-rule="nonzero"/><path fill="#ffffff" d="M 172.582031 132.730469 L 175.003906 137.632812 L 180.417969 138.421875 L 176.5 142.238281 L 177.425781 147.628906 L 172.582031 145.082031 L 167.742188 147.628906 L 168.667969 142.238281 L 164.75 138.421875 L 170.164062 137.632812 L 172.582031 132.730469 " fill-opacity="1" fill-rule="nonzero"/><path fill="#ffffff" d="M 172.582031 101.585938 L 175.003906 106.488281 L 180.417969 107.277344 L 176.5 111.09375 L 177.425781 116.484375 L 172.582031 113.941406 L 167.742188 116.484375 L 168.667969 111.09375 L 164.75 107.277344 L 170.164062 106.488281 L 172.582031 101.585938 " fill-opacity="1" fill-rule="nonzero"/><path fill="#ffffff" d="M 172.582031 70.441406 L 175.003906 75.347656 L 180.417969 76.136719 L 176.5 79.953125 L 177.425781 85.34375 L 172.582031 82.796875 L 167.742188 85.34375 L 168.667969 79.953125 L 164.75 76.136719 L 170.164062 75.347656 L 172.582031 70.441406 " fill-opacity="1" fill-rule="nonzero"/><path fill="#ffffff" d="M 172.585938 39.296875 L 175.003906 44.203125 L 180.421875 44.992188 L 176.5 48.804688 L 177.425781 54.199219 L 172.585938 51.652344 L 167.742188 54.199219 L 168.667969 48.804688 L 164.75 44.992188 L 170.164062 44.203125 L 172.585938 39.296875 " fill-opacity="1" fill-rule="nonzero"/><path fill="#ffffff" d="M 172.582031 8.15625 L 175.003906 13.058594 L 180.417969 13.847656 L 176.5 17.664062 L 177.425781 23.054688 L 172.582031 20.511719 L 167.742188 23.054688 L 168.667969 17.664062 L 164.75 13.847656 L 170.164062 13.058594 L 172.582031 8.15625 " fill-opacity="1" fill-rule="nonzero"/><path fill="#ffffff" d="M 192.589844 117.828125 L 195.011719 122.734375 L 200.425781 123.519531 L 196.507812 127.339844 L 197.433594 132.730469 L 192.589844 130.183594 L 187.746094 132.730469 L 188.671875 127.339844 L 184.753906 123.519531 L 190.167969 122.734375 L 192.589844 117.828125 " fill-opacity="1" fill-rule="nonzero"/><path fill="#ffffff" d="M 192.589844 86.6875 L 195.011719 91.589844 L 200.425781 92.375 L 196.507812 96.195312 L 197.433594 101.585938 L 192.589844 99.042969 L 187.746094 101.585938 L 188.671875 96.195312 L 184.753906 92.375 L 190.167969 91.589844 L 192.589844 86.6875 " fill-opacity="1" fill-rule="nonzero"/><path fill="#ffffff" d="M 192.589844 55.542969 L 195.011719 60.445312 L 200.425781 61.234375 L 196.507812 65.050781 L 197.433594 70.441406 L 192.589844 67.898438 L 187.746094 70.441406 L 188.671875 65.050781 L 184.753906 61.234375 L 190.167969 60.445312 L 192.589844 55.542969 " fill-opacity="1" fill-rule="nonzero"/><path fill="#ffffff" d="M 192.589844 24.398438 L 195.011719 29.304688 L 200.425781 30.089844 L 196.507812 33.910156 L 197.429688 39.300781 L 192.589844 36.753906 L 187.746094 39.300781 L 188.671875 33.910156 L 184.753906 30.089844 L 190.167969 29.304688 L 192.589844 24.398438 " fill-opacity="1" fill-rule="nonzero"/><path fill="#ffffff" d="M 211.992188 132.730469 L 214.414062 137.632812 L 219.828125 138.421875 L 215.910156 142.238281 L 216.835938 147.628906 L 211.992188 145.082031 L 207.152344 147.628906 L 208.078125 142.238281 L 204.15625 138.421875 L 209.574219 137.632812 L 211.992188 132.730469 " fill-opacity="1" fill-rule="nonzero"/><path fill="#ffffff" d="M 211.992188 101.585938 L 214.414062 106.488281 L 219.828125 107.277344 L 215.910156 111.09375 L 216.835938 116.484375 L 211.992188 113.941406 L 207.152344 116.484375 L 208.078125 111.09375 L 204.15625 107.277344 L 209.574219 106.488281 L 211.992188 101.585938 " fill-opacity="1" fill-rule="nonzero"/><path fill="#ffffff" d="M 211.992188 70.441406 L 214.414062 75.347656 L 219.828125 76.136719 L 215.910156 79.953125 L 216.835938 85.34375 L 211.992188 82.796875 L 207.152344 85.34375 L 208.078125 79.953125 L 204.15625 76.136719 L 209.574219 75.347656 L 211.992188 70.441406 " fill-opacity="1" fill-rule="nonzero"/><path fill="#ffffff" d="M 211.996094 39.296875 L 214.414062 44.203125 L 219.832031 44.992188 L 215.910156 48.804688 L 216.835938 54.199219 L 211.996094 51.652344 L 207.152344 54.199219 L 208.078125 48.804688 L 204.160156 44.992188 L 209.574219 44.203125 L 211.996094 39.296875 " fill-opacity="1" fill-rule="nonzero"/><path fill="#ffffff" d="M 211.992188 8.15625 L 214.414062 13.058594 L 219.828125 13.847656 L 215.910156 17.664062 L 216.835938 23.054688 L 211.992188 20.511719 L 207.152344 23.054688 L 208.078125 17.664062 L 204.15625 13.847656 L 209.574219 13.058594 L 211.992188 8.15625 " fill-opacity="1" fill-rule="nonzero"/></svg>