<svg   xmlns="http://www.w3.org/2000/svg" xmlns:xlink="http://www.w3.org/1999/xlink" width="500" zoomAndPan="magnify" viewBox="0 0 375 374.999991" height="500" preserveAspectRatio="xMidYMid meet" version="1.0"><defs><filter x="0%" y="0%" width="100%" height="100%" id="3ce4e3a789"><feColorMatrix values="0 0 0 0 1 0 0 0 0 1 0 0 0 0 1 0 0 0 1 0" color-interpolation-filters="sRGB"/></filter><clipPath id="12c70f0a9f"><path d="M 152 116.09375 L 224 116.09375 L 224 200 L 152 200 Z M 152 116.09375 " clip-rule="nonzero"/></clipPath><clipPath id="08d05e44e5"><path d="M 127.214844 185 L 165 185 L 165 222.59375 L 127.214844 222.59375 Z M 127.214844 185 " clip-rule="nonzero"/></clipPath><clipPath id="b0159b660a"><path d="M 209 218 L 233 218 L 233 222.59375 L 209 222.59375 Z M 209 218 " clip-rule="nonzero"/></clipPath><mask id="c30d0f4c00"><g filter="url(#3ce4e3a789)"><rect x="-37.5" width="450" fill="#000000" y="-37.499999" height="449.999989" fill-opacity="0.74"/></g></mask><clipPath id="27af554cbd"><path d="M 39 23 L 71.679688 23 L 71.679688 37.921875 L 39 37.921875 Z M 39 23 " clip-rule="nonzero"/></clipPath><mask id="d128897bc2"><g filter="url(#3ce4e3a789)"><rect x="-234.5" width="540" fill="#000000" y="-244.499998" height="539.999987" fill-opacity="0.35"/></g></mask><clipPath id="8ae6a065fd"><path d="M 1 0.761719 L 32.679688 0.761719 L 32.679688 14.921875 L 1 14.921875 Z M 1 0.761719 " clip-rule="nonzero"/></clipPath><clipPath id="cb6eda5b80"><rect x="0" width="33" y="0" height="15"/></clipPath><clipPath id="fe9d6ae2b0"><path d="M 0.640625 0 L 25 0 L 25 26 L 0.640625 26 Z M 0.640625 0 " clip-rule="nonzero"/></clipPath><mask id="a5c94be7e4"><g filter="url(#3ce4e3a789)"><rect x="-234.5" width="540" fill="#000000" y="-244.499998" height="539.999987" fill-opacity="0.35"/></g></mask><clipPath id="c003c04a90"><path d="M 0.640625 0 L 24.398438 0 L 24.398438 25.199219 L 0.640625 25.199219 Z M 0.640625 0 " clip-rule="nonzero"/></clipPath><clipPath id="3b497d4eb8"><rect x="0" width="25" y="0" height="26"/></clipPath><clipPath id="0da7cd2222"><rect x="0" width="72" y="0" height="38"/></clipPath><clipPath id="02d8ad350c"><path d="M 138 132 L 240.464844 132 L 240.464844 216 L 138 216 Z M 138 132 " clip-rule="nonzero"/></clipPath><clipPath id="43c9423a29"><path d="M 139 136 L 240.464844 136 L 240.464844 216 L 139 216 Z M 139 136 " clip-rule="nonzero"/></clipPath><mask id="43b4678b9d"><g filter="url(#3ce4e3a789)"><rect x="-37.5" width="450" fill="#000000" y="-37.499999" height="449.999989" fill-opacity="0.26"/></g></mask><clipPath id="d6f7850b01"><path d="M 0.199219 1 L 101.464844 1 L 101.464844 79.519531 L 0.199219 79.519531 Z M 0.199219 1 " clip-rule="nonzero"/></clipPath><clipPath id="5faab92424"><rect x="0" width="102" y="0" height="80"/></clipPath><mask id="4f377543e3"><g filter="url(#3ce4e3a789)"><rect x="-37.5" width="450" fill="#000000" y="-37.499999" height="449.999989" fill-opacity="0.35"/></g></mask><clipPath id="2c16c7d5c1"><path d="M 0.679688 1 L 2.839844 1 L 2.839844 5.921875 L 0.679688 5.921875 Z M 0.679688 1 " clip-rule="nonzero"/></clipPath><clipPath id="bc041e4366"><rect x="0" width="3" y="0" height="6"/></clipPath><mask id="77dfca075c"><g filter="url(#3ce4e3a789)"><rect x="-37.5" width="450" fill="#000000" y="-37.499999" height="449.999989" fill-opacity="0.35"/></g></mask><clipPath id="ece648f164"><path d="M 1 0.160156 L 3.921875 0.160156 L 3.921875 9.761719 L 1 9.761719 Z M 1 0.160156 " clip-rule="nonzero"/></clipPath><clipPath id="4e071b3067"><rect x="0" width="4" y="0" height="10"/></clipPath></defs><g clip-path="url(#12c70f0a9f)"><path fill="#ffffff" d="M 171.34375 187.035156 L 181.972656 166.4375 L 198.136719 197.765625 C 204.21875 199.15625 210.378906 199.855469 216.617188 199.863281 C 218.023438 199.863281 221.5 199.878906 223.441406 196.554688 L 181.972656 116.128906 L 152.699219 172.851562 C 158.359375 178.308594 164.574219 183.035156 171.34375 187.035156 Z M 171.34375 187.035156 " fill-opacity="1" fill-rule="nonzero"/></g><g clip-path="url(#08d05e44e5)"><path fill="#ffffff" d="M 146.386719 185.089844 L 127.214844 222.238281 L 153.175781 222.238281 L 164.394531 200.496094 C 157.78125 196.074219 151.777344 190.9375 146.386719 185.089844 Z M 146.386719 185.089844 " fill-opacity="1" fill-rule="nonzero"/></g><g clip-path="url(#b0159b660a)"><path fill="#ffffff" d="M 209.066406 218.945312 L 210.765625 222.238281 L 232.167969 222.238281 C 224.386719 221.710938 216.6875 220.613281 209.066406 218.945312 Z M 209.066406 218.945312 " fill-opacity="1" fill-rule="nonzero"/></g><g mask="url(#c30d0f4c00)"><g transform="matrix(1, 0, 0, 1, 152, 162)"><g clip-path="url(#0da7cd2222)"><g clip-path="url(#27af554cbd)"><g mask="url(#d128897bc2)"><g transform="matrix(1, 0, 0, 1, 39, 23)"><g clip-path="url(#cb6eda5b80)"><g clip-path="url(#8ae6a065fd)"><path fill="#1a2e46" d="M 25.617188 14.863281 C 27.023438 14.863281 30.5 14.878906 32.441406 11.554688 L 30.550781 7.890625 C 19.253906 6.699219 9.480469 4.261719 1.035156 0.949219 L 7.132812 12.773438 C 9.546875 13.316406 13.023438 13.867188 16.714844 14.378906 C 19.675781 14.703125 22.640625 14.863281 25.617188 14.863281 Z M 25.617188 14.863281 " fill-opacity="1" fill-rule="nonzero"/></g></g></g></g></g><g clip-path="url(#fe9d6ae2b0)"><g mask="url(#a5c94be7e4)"><g transform="matrix(1, 0, 0, 1, 0.000000000000028422, 0)"><g clip-path="url(#3b497d4eb8)"><g clip-path="url(#c003c04a90)"><path fill="#1a2e46" d="M 24.101562 15.808594 C 17.375 11.445312 11.429688 6.195312 6.269531 0.0585938 L 0.699219 10.851562 C 6.359375 16.308594 12.574219 21.035156 19.34375 25.035156 Z M 24.101562 15.808594 " fill-opacity="1" fill-rule="nonzero"/></g></g></g></g></g></g></g></g><g clip-path="url(#02d8ad350c)"><path fill="#ffffff" d="M 240.171875 215.339844 C 240.171875 215.339844 151.488281 217.636719 139.300781 137.207031 C 139.0625 135.648438 138.855469 134.054688 138.679688 132.433594 C 139.003906 134.410156 150.398438 200.039062 229.734375 194.832031 L 237.265625 209.621094 Z M 240.171875 215.339844 " fill-opacity="1" fill-rule="nonzero"/></g><g clip-path="url(#43c9423a29)"><g mask="url(#43b4678b9d)"><g transform="matrix(1, 0, 0, 1, 139, 136)"><g clip-path="url(#5faab92424)"><g clip-path="url(#d6f7850b01)"><path fill="#1a2e46" d="M 101.171875 79.339844 C 101.171875 79.339844 12.488281 81.636719 0.300781 1.207031 C 3.117188 16.871094 18.292969 65.820312 98.265625 73.628906 Z M 101.171875 79.339844 " fill-opacity="1" fill-rule="nonzero"/></g></g></g></g></g><path fill="#ffffff" d="M 140.050781 129.058594 L 140.816406 129.886719 L 141.515625 133.652344 L 139.945312 131.109375 C 140.039062 130.425781 140.070312 129.746094 140.050781 129.058594 Z M 136.316406 129.671875 L 135.839844 130.691406 L 136.375 134.484375 L 137.050781 131.574219 C 136.753906 130.960938 136.507812 130.324219 136.316406 129.671875 Z M 139.625 131.535156 L 138.515625 131.378906 L 137.515625 131.878906 C 137.515625 131.878906 134.589844 126.972656 137.058594 122.523438 C 140.816406 125.957031 139.625 131.527344 139.625 131.527344 Z M 138.886719 126.453125 C 138.859375 126.300781 138.808594 126.15625 138.726562 126.023438 C 138.644531 125.894531 138.539062 125.78125 138.414062 125.691406 C 138.289062 125.601562 138.148438 125.539062 138 125.503906 C 137.847656 125.46875 137.695312 125.460938 137.542969 125.488281 C 137.390625 125.511719 137.25 125.566406 137.117188 125.648438 C 136.984375 125.730469 136.875 125.832031 136.785156 125.957031 C 136.691406 126.085938 136.628906 126.222656 136.59375 126.375 C 136.558594 126.523438 136.554688 126.675781 136.578125 126.828125 C 136.605469 126.980469 136.65625 127.125 136.738281 127.253906 C 136.820312 127.386719 136.921875 127.5 137.050781 127.589844 C 137.175781 127.679688 137.3125 127.742188 137.464844 127.777344 C 137.613281 127.8125 137.765625 127.820312 137.917969 127.792969 C 138.074219 127.769531 138.214844 127.714844 138.347656 127.632812 C 138.476562 127.550781 138.589844 127.449219 138.679688 127.324219 C 138.769531 127.195312 138.832031 127.058594 138.871094 126.90625 C 138.90625 126.757812 138.910156 126.605469 138.886719 126.453125 Z M 138.886719 126.453125 " fill-opacity="1" fill-rule="nonzero"/><path fill="#ffffff" d="M 161.457031 150.925781 C 161.457031 151.328125 161.417969 151.722656 161.339844 152.113281 C 161.261719 152.503906 161.148438 152.882812 160.996094 153.25 C 160.839844 153.621094 160.65625 153.96875 160.433594 154.300781 C 160.210938 154.632812 159.960938 154.9375 159.679688 155.21875 C 159.394531 155.503906 159.089844 155.753906 158.757812 155.976562 C 158.425781 156.195312 158.078125 156.382812 157.707031 156.535156 C 157.339844 156.6875 156.960938 156.804688 156.570312 156.882812 C 156.179688 156.960938 155.785156 157 155.386719 157 C 154.988281 157 154.59375 156.960938 154.199219 156.882812 C 153.808594 156.804688 153.429688 156.6875 153.0625 156.535156 C 152.695312 156.382812 152.34375 156.195312 152.011719 155.976562 C 151.679688 155.753906 151.375 155.503906 151.09375 155.21875 C 150.8125 154.9375 150.558594 154.632812 150.335938 154.300781 C 150.117188 153.96875 149.929688 153.621094 149.777344 153.25 C 149.625 152.882812 149.507812 152.503906 149.429688 152.113281 C 149.351562 151.722656 149.316406 151.328125 149.316406 150.925781 C 149.316406 150.527344 149.351562 150.132812 149.429688 149.742188 C 149.507812 149.351562 149.625 148.972656 149.777344 148.605469 C 149.929688 148.234375 150.117188 147.886719 150.335938 147.554688 C 150.558594 147.222656 150.8125 146.917969 151.09375 146.636719 C 151.375 146.351562 151.679688 146.101562 152.011719 145.878906 C 152.34375 145.660156 152.695312 145.472656 153.0625 145.320312 C 153.429688 145.167969 153.808594 145.050781 154.199219 144.972656 C 154.59375 144.894531 154.988281 144.855469 155.386719 144.855469 C 155.785156 144.855469 156.179688 144.894531 156.570312 144.972656 C 156.960938 145.050781 157.339844 145.167969 157.707031 145.320312 C 158.078125 145.472656 158.425781 145.660156 158.757812 145.878906 C 159.089844 146.101562 159.394531 146.351562 159.679688 146.636719 C 159.960938 146.917969 160.210938 147.222656 160.433594 147.554688 C 160.65625 147.886719 160.839844 148.234375 160.996094 148.605469 C 161.148438 148.972656 161.261719 149.351562 161.339844 149.742188 C 161.417969 150.132812 161.457031 150.527344 161.457031 150.925781 Z M 161.457031 150.925781 " fill-opacity="1" fill-rule="nonzero"/><path fill="#ffffff" d="M 152.195312 137.207031 C 152.195312 137.398438 152.15625 137.582031 152.085938 137.757812 C 152.011719 137.933594 151.90625 138.089844 151.773438 138.226562 C 151.636719 138.359375 151.480469 138.464844 151.304688 138.539062 C 151.128906 138.609375 150.945312 138.648438 150.753906 138.648438 C 150.5625 138.648438 150.378906 138.609375 150.203125 138.539062 C 150.027344 138.464844 149.871094 138.359375 149.734375 138.226562 C 149.601562 138.089844 149.496094 137.933594 149.425781 137.757812 C 149.351562 137.582031 149.316406 137.398438 149.316406 137.207031 C 149.316406 137.015625 149.351562 136.832031 149.425781 136.65625 C 149.496094 136.480469 149.601562 136.324219 149.734375 136.191406 C 149.871094 136.054688 150.027344 135.949219 150.203125 135.878906 C 150.378906 135.804688 150.5625 135.769531 150.753906 135.769531 C 150.945312 135.769531 151.128906 135.804688 151.304688 135.878906 C 151.480469 135.949219 151.636719 136.054688 151.773438 136.191406 C 151.90625 136.324219 152.011719 136.480469 152.085938 136.65625 C 152.15625 136.832031 152.195312 137.015625 152.195312 137.207031 Z M 152.195312 137.207031 " fill-opacity="1" fill-rule="nonzero"/><path fill="#ffffff" d="M 149.316406 174.546875 C 149.316406 174.925781 149.242188 175.292969 149.097656 175.644531 C 148.949219 175.996094 148.742188 176.308594 148.472656 176.578125 C 148.203125 176.847656 147.890625 177.054688 147.539062 177.203125 C 147.1875 177.347656 146.820312 177.421875 146.441406 177.421875 C 146.058594 177.421875 145.691406 177.347656 145.339844 177.203125 C 144.988281 177.054688 144.675781 176.847656 144.40625 176.578125 C 144.136719 176.308594 143.929688 175.996094 143.785156 175.644531 C 143.636719 175.292969 143.5625 174.925781 143.5625 174.546875 C 143.5625 174.164062 143.636719 173.796875 143.785156 173.445312 C 143.929688 173.09375 144.136719 172.78125 144.40625 172.511719 C 144.675781 172.242188 144.988281 172.035156 145.339844 171.890625 C 145.691406 171.742188 146.058594 171.671875 146.441406 171.671875 C 146.820312 171.671875 147.1875 171.742188 147.539062 171.890625 C 147.890625 172.035156 148.203125 172.242188 148.472656 172.511719 C 148.742188 172.78125 148.949219 173.09375 149.097656 173.445312 C 149.242188 173.796875 149.316406 174.164062 149.316406 174.546875 Z M 149.316406 174.546875 " fill-opacity="1" fill-rule="nonzero"/><g mask="url(#4f377543e3)"><g transform="matrix(1, 0, 0, 1, 139, 128)"><g clip-path="url(#bc041e4366)"><g clip-path="url(#2c16c7d5c1)"><path fill="#1a2e46" d="M 2.515625 5.644531 L 1.816406 1.878906 L 1.050781 1.050781 C 1.070312 1.734375 1.035156 2.414062 0.945312 3.089844 Z M 2.515625 5.644531 " fill-opacity="1" fill-rule="nonzero"/></g></g></g></g><g mask="url(#77dfca075c)"><g transform="matrix(1, 0, 0, 1, 136, 122)"><g clip-path="url(#4e071b3067)"><g clip-path="url(#ece648f164)"><path fill="#1a2e46" d="M 1.058594 0.523438 L 1.542969 3.484375 C 1.695312 3.460938 1.847656 3.464844 2 3.5 C 2.148438 3.539062 2.289062 3.601562 2.414062 3.691406 C 2.539062 3.78125 2.644531 3.894531 2.726562 4.023438 C 2.808594 4.15625 2.859375 4.300781 2.886719 4.453125 C 2.910156 4.605469 2.90625 4.757812 2.871094 4.90625 C 2.835938 5.058594 2.769531 5.199219 2.679688 5.324219 C 2.589844 5.449219 2.480469 5.554688 2.347656 5.632812 C 2.214844 5.714844 2.074219 5.769531 1.917969 5.792969 L 2.503906 9.371094 L 3.613281 9.527344 C 3.613281 9.527344 4.816406 3.957031 1.058594 0.523438 Z M 1.058594 0.523438 " fill-opacity="1" fill-rule="nonzero"/></g></g></g></g></svg>