<svg xmlns="http://www.w3.org/2000/svg" xmlns:xlink="http://www.w3.org/1999/xlink" width="576" zoomAndPan="magnify" viewBox="0 0 432 287.999989" height="384" preserveAspectRatio="xMidYMid meet" version="1.0"><defs><clipPath id="1a5f122a2c"><path d="M 80.707031 0 L 365.707031 0 L 365.707031 285 L 80.707031 285 Z M 80.707031 0 " clip-rule="nonzero"/></clipPath></defs><g clip-path="url(#1a5f122a2c)"><path fill="#e20a17" d="M 357.632812 95.011719 C 338.054688 39.671875 285.269531 0 223.207031 0 C 161.144531 0 108.394531 39.671875 88.816406 95.011719 C 83.554688 109.878906 80.707031 125.84375 80.707031 142.5 C 80.707031 159.15625 83.554688 175.15625 88.816406 189.988281 C 108.394531 245.328125 161.179688 285 223.207031 285 C 285.230469 285 338.054688 245.328125 357.597656 189.988281 C 362.855469 175.121094 365.707031 159.15625 365.707031 142.5 C 365.707031 125.84375 362.855469 109.878906 357.632812 95.011719 Z M 357.632812 95.011719 " fill-opacity="1" fill-rule="nonzero"/></g><path fill="#ededed" d="M 212.0625 195.90625 C 182.585938 195.90625 158.660156 172.015625 158.660156 142.5 C 158.660156 112.984375 182.546875 89.09375 212.0625 89.09375 C 225.289062 89.09375 237.378906 93.878906 246.695312 101.84375 C 235.371094 88.839844 218.675781 80.621094 200.082031 80.621094 C 165.929688 80.621094 138.238281 108.308594 138.238281 142.464844 C 138.238281 176.617188 165.929688 204.308594 200.082031 204.308594 C 218.675781 204.308594 235.371094 196.089844 246.695312 183.082031 C 237.378906 191.121094 225.289062 195.90625 212.0625 195.90625 Z M 212.0625 195.90625 " fill-opacity="1" fill-rule="nonzero"/><path fill="#ededed" d="M 268.539062 111.925781 L 283.660156 129.019531 L 304.554688 119.816406 L 292.941406 139.46875 L 308.171875 156.453125 L 285.890625 151.523438 L 274.417969 171.25 L 272.265625 148.527344 L 249.945312 143.742188 L 270.875 134.644531 Z M 268.539062 111.925781 " fill-opacity="1" fill-rule="nonzero"/></svg>